<mxfile host="app.diagrams.net" modified="2023-05-30T01:01:59.017Z" agent="Mozilla/5.0 (Windows NT 10.0; Win64; x64) AppleWebKit/537.36 (KHTML, like Gecko) Chrome/110.0.0.0 YaBrowser/23.3.4.605 Yowser/2.5 Safari/537.36" etag="5ShORej11a-zKCcjXUGD" version="21.3.4" type="device" pages="7">
  <diagram name="Page-1" id="fpuRdL1RuoapfyxhOyUc">
    <mxGraphModel dx="424" dy="769" grid="1" gridSize="10" guides="1" tooltips="1" connect="1" arrows="1" fold="1" page="1" pageScale="1" pageWidth="850" pageHeight="1100" math="0" shadow="0">
      <root>
        <mxCell id="0" />
        <mxCell id="1" parent="0" />
        <mxCell id="yoe0yxvbOOTikNjLZrFT-1" style="edgeStyle=orthogonalEdgeStyle;rounded=0;orthogonalLoop=1;jettySize=auto;html=1;entryX=0.5;entryY=0;entryDx=0;entryDy=0;" parent="1" source="ElI9jbEV-BnsTaFzMSvC-1" target="ElI9jbEV-BnsTaFzMSvC-2" edge="1">
          <mxGeometry relative="1" as="geometry">
            <Array as="points">
              <mxPoint x="420" y="180" />
              <mxPoint x="200" y="180" />
            </Array>
          </mxGeometry>
        </mxCell>
        <mxCell id="yoe0yxvbOOTikNjLZrFT-2" style="edgeStyle=orthogonalEdgeStyle;rounded=0;orthogonalLoop=1;jettySize=auto;html=1;entryX=0.5;entryY=0;entryDx=0;entryDy=0;" parent="1" source="ElI9jbEV-BnsTaFzMSvC-1" target="ElI9jbEV-BnsTaFzMSvC-3" edge="1">
          <mxGeometry relative="1" as="geometry" />
        </mxCell>
        <mxCell id="yoe0yxvbOOTikNjLZrFT-3" style="edgeStyle=orthogonalEdgeStyle;rounded=0;orthogonalLoop=1;jettySize=auto;html=1;entryX=0.5;entryY=0;entryDx=0;entryDy=0;" parent="1" source="ElI9jbEV-BnsTaFzMSvC-1" target="ElI9jbEV-BnsTaFzMSvC-4" edge="1">
          <mxGeometry relative="1" as="geometry">
            <Array as="points">
              <mxPoint x="420" y="180" />
              <mxPoint x="620" y="180" />
            </Array>
          </mxGeometry>
        </mxCell>
        <mxCell id="ElI9jbEV-BnsTaFzMSvC-1" value="&lt;div&gt;ТУСУР&lt;/div&gt;&lt;div&gt;Ректор&lt;br&gt;&lt;/div&gt;" style="whiteSpace=wrap;html=1;fillColor=#f5f5f5;fontColor=#333333;strokeColor=#666666;" parent="1" vertex="1">
          <mxGeometry x="360" y="110" width="120" height="60" as="geometry" />
        </mxCell>
        <mxCell id="yoe0yxvbOOTikNjLZrFT-4" style="edgeStyle=orthogonalEdgeStyle;rounded=0;orthogonalLoop=1;jettySize=auto;html=1;entryX=0.5;entryY=0;entryDx=0;entryDy=0;" parent="1" source="ElI9jbEV-BnsTaFzMSvC-2" target="ElI9jbEV-BnsTaFzMSvC-5" edge="1">
          <mxGeometry relative="1" as="geometry" />
        </mxCell>
        <mxCell id="yoe0yxvbOOTikNjLZrFT-5" style="edgeStyle=orthogonalEdgeStyle;rounded=0;orthogonalLoop=1;jettySize=auto;html=1;entryX=0.5;entryY=0;entryDx=0;entryDy=0;" parent="1" source="ElI9jbEV-BnsTaFzMSvC-2" target="ElI9jbEV-BnsTaFzMSvC-6" edge="1">
          <mxGeometry relative="1" as="geometry">
            <Array as="points">
              <mxPoint x="200" y="300" />
              <mxPoint x="420" y="300" />
            </Array>
          </mxGeometry>
        </mxCell>
        <mxCell id="ElI9jbEV-BnsTaFzMSvC-2" value="Службы проректора по молодёжной политике и воспитательной деятельности" style="whiteSpace=wrap;html=1;fillColor=#f5f5f5;fontColor=#333333;strokeColor=#666666;" parent="1" vertex="1">
          <mxGeometry x="120" y="200" width="160" height="80" as="geometry" />
        </mxCell>
        <mxCell id="ElI9jbEV-BnsTaFzMSvC-3" value="Департамент образования" style="whiteSpace=wrap;html=1;" parent="1" vertex="1">
          <mxGeometry x="360" y="200" width="120" height="80" as="geometry" />
        </mxCell>
        <mxCell id="ElI9jbEV-BnsTaFzMSvC-4" value="Другие службы и департаменты" style="whiteSpace=wrap;html=1;" parent="1" vertex="1">
          <mxGeometry x="560" y="200" width="120" height="80" as="geometry" />
        </mxCell>
        <mxCell id="yoe0yxvbOOTikNjLZrFT-6" style="edgeStyle=orthogonalEdgeStyle;rounded=0;orthogonalLoop=1;jettySize=auto;html=1;entryX=0.5;entryY=0;entryDx=0;entryDy=0;" parent="1" source="ElI9jbEV-BnsTaFzMSvC-5" target="ElI9jbEV-BnsTaFzMSvC-7" edge="1">
          <mxGeometry relative="1" as="geometry" />
        </mxCell>
        <mxCell id="yoe0yxvbOOTikNjLZrFT-7" style="edgeStyle=orthogonalEdgeStyle;rounded=0;orthogonalLoop=1;jettySize=auto;html=1;entryX=0.5;entryY=0;entryDx=0;entryDy=0;" parent="1" source="ElI9jbEV-BnsTaFzMSvC-5" target="ElI9jbEV-BnsTaFzMSvC-8" edge="1">
          <mxGeometry relative="1" as="geometry">
            <Array as="points">
              <mxPoint x="200" y="420" />
              <mxPoint x="420" y="420" />
            </Array>
          </mxGeometry>
        </mxCell>
        <mxCell id="yoe0yxvbOOTikNjLZrFT-8" style="edgeStyle=orthogonalEdgeStyle;rounded=0;orthogonalLoop=1;jettySize=auto;html=1;entryX=0.5;entryY=0;entryDx=0;entryDy=0;" parent="1" source="ElI9jbEV-BnsTaFzMSvC-5" target="ElI9jbEV-BnsTaFzMSvC-9" edge="1">
          <mxGeometry relative="1" as="geometry">
            <Array as="points">
              <mxPoint x="200" y="420" />
              <mxPoint x="620" y="420" />
            </Array>
          </mxGeometry>
        </mxCell>
        <mxCell id="ElI9jbEV-BnsTaFzMSvC-5" value="Управление воспитательной работы (УВР)" style="whiteSpace=wrap;html=1;fillColor=#f5f5f5;fontColor=#333333;strokeColor=#666666;" parent="1" vertex="1">
          <mxGeometry x="120" y="320" width="160" height="80" as="geometry" />
        </mxCell>
        <mxCell id="ElI9jbEV-BnsTaFzMSvC-6" value="Центр компетенций " style="whiteSpace=wrap;html=1;" parent="1" vertex="1">
          <mxGeometry x="360" y="320" width="120" height="80" as="geometry" />
        </mxCell>
        <mxCell id="yoe0yxvbOOTikNjLZrFT-9" style="edgeStyle=orthogonalEdgeStyle;rounded=0;orthogonalLoop=1;jettySize=auto;html=1;entryX=0.5;entryY=0;entryDx=0;entryDy=0;" parent="1" source="ElI9jbEV-BnsTaFzMSvC-7" target="ElI9jbEV-BnsTaFzMSvC-10" edge="1">
          <mxGeometry relative="1" as="geometry" />
        </mxCell>
        <mxCell id="yoe0yxvbOOTikNjLZrFT-13" style="edgeStyle=orthogonalEdgeStyle;rounded=0;orthogonalLoop=1;jettySize=auto;html=1;entryX=0.5;entryY=0;entryDx=0;entryDy=0;" parent="1" source="ElI9jbEV-BnsTaFzMSvC-7" target="yoe0yxvbOOTikNjLZrFT-10" edge="1">
          <mxGeometry relative="1" as="geometry">
            <Array as="points">
              <mxPoint x="200" y="550" />
              <mxPoint x="365" y="550" />
            </Array>
          </mxGeometry>
        </mxCell>
        <mxCell id="yoe0yxvbOOTikNjLZrFT-14" style="edgeStyle=orthogonalEdgeStyle;rounded=0;orthogonalLoop=1;jettySize=auto;html=1;entryX=0.5;entryY=0;entryDx=0;entryDy=0;" parent="1" source="ElI9jbEV-BnsTaFzMSvC-7" target="yoe0yxvbOOTikNjLZrFT-11" edge="1">
          <mxGeometry relative="1" as="geometry">
            <Array as="points">
              <mxPoint x="200" y="550" />
              <mxPoint x="510" y="550" />
            </Array>
          </mxGeometry>
        </mxCell>
        <mxCell id="yoe0yxvbOOTikNjLZrFT-15" style="edgeStyle=orthogonalEdgeStyle;rounded=0;orthogonalLoop=1;jettySize=auto;html=1;entryX=0.5;entryY=0;entryDx=0;entryDy=0;" parent="1" source="ElI9jbEV-BnsTaFzMSvC-7" target="yoe0yxvbOOTikNjLZrFT-12" edge="1">
          <mxGeometry relative="1" as="geometry">
            <Array as="points">
              <mxPoint x="200" y="550" />
              <mxPoint x="660" y="550" />
            </Array>
          </mxGeometry>
        </mxCell>
        <mxCell id="ElI9jbEV-BnsTaFzMSvC-7" value="Отдел по культурно-массовой работе" style="whiteSpace=wrap;html=1;fillColor=#f5f5f5;fontColor=#333333;strokeColor=#666666;" parent="1" vertex="1">
          <mxGeometry x="120" y="440" width="160" height="80" as="geometry" />
        </mxCell>
        <mxCell id="ElI9jbEV-BnsTaFzMSvC-8" value="Отдел по воспитательной работе" style="whiteSpace=wrap;html=1;" parent="1" vertex="1">
          <mxGeometry x="360" y="440" width="120" height="80" as="geometry" />
        </mxCell>
        <mxCell id="ElI9jbEV-BnsTaFzMSvC-9" value="Отдел по физкультурно-оздоровительной работе и здоровому образу жизни" style="whiteSpace=wrap;html=1;" parent="1" vertex="1">
          <mxGeometry x="560" y="440" width="120" height="80" as="geometry" />
        </mxCell>
        <mxCell id="ElI9jbEV-BnsTaFzMSvC-10" value="Музыкальный коллектив&lt;br&gt;&quot;Ad Astra&quot;" style="whiteSpace=wrap;html=1;fillColor=#f5f5f5;fontColor=#333333;strokeColor=#666666;" parent="1" vertex="1">
          <mxGeometry x="120" y="570" width="160" height="60" as="geometry" />
        </mxCell>
        <mxCell id="yoe0yxvbOOTikNjLZrFT-10" value="Рок-клуб ТУСУРа" style="whiteSpace=wrap;html=1;" parent="1" vertex="1">
          <mxGeometry x="305" y="570" width="120" height="60" as="geometry" />
        </mxCell>
        <mxCell id="yoe0yxvbOOTikNjLZrFT-11" value="СТЭМ &quot;Амплуа&quot;" style="whiteSpace=wrap;html=1;" parent="1" vertex="1">
          <mxGeometry x="450" y="570" width="120" height="60" as="geometry" />
        </mxCell>
        <mxCell id="yoe0yxvbOOTikNjLZrFT-12" value="Студия фехтования &quot;Эллекен&quot;" style="whiteSpace=wrap;html=1;" parent="1" vertex="1">
          <mxGeometry x="600" y="570" width="120" height="60" as="geometry" />
        </mxCell>
      </root>
    </mxGraphModel>
  </diagram>
  <diagram id="QX3w28sU20rc1ltJyIQy" name="А-0">
    <mxGraphModel dx="664" dy="769" grid="1" gridSize="10" guides="1" tooltips="1" connect="1" arrows="1" fold="1" page="1" pageScale="1" pageWidth="827" pageHeight="1169" math="0" shadow="0">
      <root>
        <mxCell id="0" />
        <mxCell id="1" parent="0" />
        <mxCell id="-vTtblLV0ixnsln579Op-1" value="Проектировать информационную систему" style="whiteSpace=wrap;html=1;" vertex="1" parent="1">
          <mxGeometry x="320" y="350" width="120" height="60" as="geometry" />
        </mxCell>
      </root>
    </mxGraphModel>
  </diagram>
  <diagram id="yHpP3QdEcfs5SRa-Ydgr" name="A-1">
    <mxGraphModel dx="1491" dy="769" grid="1" gridSize="10" guides="1" tooltips="1" connect="1" arrows="1" fold="1" page="1" pageScale="1" pageWidth="827" pageHeight="1169" math="0" shadow="0">
      <root>
        <mxCell id="0" />
        <mxCell id="1" parent="0" />
        <mxCell id="4LxUstQOILG32tFcbGvs-1" style="edgeStyle=orthogonalEdgeStyle;rounded=0;orthogonalLoop=1;jettySize=auto;html=1;entryX=0;entryY=0.5;entryDx=0;entryDy=0;" edge="1" parent="1" source="v_otlIXERwxdvB0wouAA-1" target="v_otlIXERwxdvB0wouAA-2">
          <mxGeometry relative="1" as="geometry" />
        </mxCell>
        <mxCell id="v_otlIXERwxdvB0wouAA-1" value="Формировать состав коллектива" style="whiteSpace=wrap;html=1;" vertex="1" parent="1">
          <mxGeometry x="80" y="310" width="120" height="60" as="geometry" />
        </mxCell>
        <mxCell id="4LxUstQOILG32tFcbGvs-2" style="edgeStyle=orthogonalEdgeStyle;rounded=0;orthogonalLoop=1;jettySize=auto;html=1;entryX=0;entryY=0.5;entryDx=0;entryDy=0;" edge="1" parent="1" source="v_otlIXERwxdvB0wouAA-2" target="v_otlIXERwxdvB0wouAA-3">
          <mxGeometry relative="1" as="geometry" />
        </mxCell>
        <mxCell id="v_otlIXERwxdvB0wouAA-2" value="Подобрать репертуар музыкального коллектива" style="whiteSpace=wrap;html=1;" vertex="1" parent="1">
          <mxGeometry x="240" y="420" width="120" height="60" as="geometry" />
        </mxCell>
        <mxCell id="4LxUstQOILG32tFcbGvs-3" style="edgeStyle=orthogonalEdgeStyle;rounded=0;orthogonalLoop=1;jettySize=auto;html=1;entryX=0;entryY=0.5;entryDx=0;entryDy=0;" edge="1" parent="1" source="v_otlIXERwxdvB0wouAA-3" target="v_otlIXERwxdvB0wouAA-4">
          <mxGeometry relative="1" as="geometry" />
        </mxCell>
        <mxCell id="v_otlIXERwxdvB0wouAA-3" value="Планировать и проводить репетиционные занятия" style="whiteSpace=wrap;html=1;" vertex="1" parent="1">
          <mxGeometry x="400" y="540" width="120" height="60" as="geometry" />
        </mxCell>
        <mxCell id="v_otlIXERwxdvB0wouAA-4" value="Участвовать в творческих мероприятиях" style="whiteSpace=wrap;html=1;" vertex="1" parent="1">
          <mxGeometry x="560" y="630" width="120" height="60" as="geometry" />
        </mxCell>
        <mxCell id="OUQTa12C5sgq7TkXiij9-1" value="" style="edgeStyle=none;orthogonalLoop=1;jettySize=auto;html=1;rounded=0;entryX=0;entryY=0.5;entryDx=0;entryDy=0;" edge="1" parent="1" target="v_otlIXERwxdvB0wouAA-1">
          <mxGeometry width="100" relative="1" as="geometry">
            <mxPoint x="-40" y="340" as="sourcePoint" />
            <mxPoint x="60" y="340" as="targetPoint" />
            <Array as="points" />
          </mxGeometry>
        </mxCell>
        <mxCell id="OUQTa12C5sgq7TkXiij9-2" value="Студенты" style="edgeLabel;html=1;align=center;verticalAlign=middle;resizable=0;points=[];" vertex="1" connectable="0" parent="OUQTa12C5sgq7TkXiij9-1">
          <mxGeometry x="0.4167" y="3" relative="1" as="geometry">
            <mxPoint x="-35" as="offset" />
          </mxGeometry>
        </mxCell>
        <mxCell id="OUQTa12C5sgq7TkXiij9-3" value="" style="edgeStyle=none;orthogonalLoop=1;jettySize=auto;html=1;rounded=0;entryX=0.5;entryY=0;entryDx=0;entryDy=0;" edge="1" parent="1" target="v_otlIXERwxdvB0wouAA-1">
          <mxGeometry width="100" relative="1" as="geometry">
            <mxPoint x="140" y="210" as="sourcePoint" />
            <mxPoint x="190" y="230" as="targetPoint" />
            <Array as="points" />
          </mxGeometry>
        </mxCell>
        <mxCell id="OUQTa12C5sgq7TkXiij9-4" value="Руководитель &lt;br&gt;музыкального &lt;br&gt;коллектива" style="edgeLabel;html=1;align=center;verticalAlign=middle;resizable=0;points=[];" vertex="1" connectable="0" parent="OUQTa12C5sgq7TkXiij9-3">
          <mxGeometry x="0.34" relative="1" as="geometry">
            <mxPoint y="-17" as="offset" />
          </mxGeometry>
        </mxCell>
      </root>
    </mxGraphModel>
  </diagram>
  <diagram id="x1QcYqhgzP5H8HqaaLsp" name="A-2(1)">
    <mxGraphModel dx="664" dy="769" grid="1" gridSize="10" guides="1" tooltips="1" connect="1" arrows="1" fold="1" page="1" pageScale="1" pageWidth="827" pageHeight="1169" math="0" shadow="0">
      <root>
        <mxCell id="0" />
        <mxCell id="1" parent="0" />
        <mxCell id="4tG8dNeMIKY8EPxQ8PQ1-1" value="Формировать состав коллектива" style="whiteSpace=wrap;html=1;" vertex="1" parent="1">
          <mxGeometry x="294" y="100" width="120" height="60" as="geometry" />
        </mxCell>
        <mxCell id="0C8l4rYyyaVMeXdVEAHL-4" style="edgeStyle=orthogonalEdgeStyle;rounded=0;orthogonalLoop=1;jettySize=auto;html=1;entryX=0;entryY=0.5;entryDx=0;entryDy=0;" edge="1" parent="1" source="0C8l4rYyyaVMeXdVEAHL-1" target="0C8l4rYyyaVMeXdVEAHL-2">
          <mxGeometry relative="1" as="geometry" />
        </mxCell>
        <mxCell id="0C8l4rYyyaVMeXdVEAHL-1" value="Афишировать набор новых участников" style="whiteSpace=wrap;html=1;" vertex="1" parent="1">
          <mxGeometry x="90" y="250" width="120" height="60" as="geometry" />
        </mxCell>
        <mxCell id="0C8l4rYyyaVMeXdVEAHL-5" style="edgeStyle=orthogonalEdgeStyle;rounded=0;orthogonalLoop=1;jettySize=auto;html=1;entryX=0;entryY=0.5;entryDx=0;entryDy=0;" edge="1" parent="1" source="0C8l4rYyyaVMeXdVEAHL-2" target="0C8l4rYyyaVMeXdVEAHL-3">
          <mxGeometry relative="1" as="geometry" />
        </mxCell>
        <mxCell id="0C8l4rYyyaVMeXdVEAHL-2" value="Устраивать прослушивания" style="whiteSpace=wrap;html=1;" vertex="1" parent="1">
          <mxGeometry x="290" y="370" width="120" height="60" as="geometry" />
        </mxCell>
        <mxCell id="0C8l4rYyyaVMeXdVEAHL-3" value="Принимать новых участников в состав коллектива" style="whiteSpace=wrap;html=1;" vertex="1" parent="1">
          <mxGeometry x="470" y="480" width="120" height="60" as="geometry" />
        </mxCell>
      </root>
    </mxGraphModel>
  </diagram>
  <diagram id="dIYWR_7KkwTrmF9riE-s" name="A-2(2)">
    <mxGraphModel dx="664" dy="769" grid="1" gridSize="10" guides="1" tooltips="1" connect="1" arrows="1" fold="1" page="1" pageScale="1" pageWidth="827" pageHeight="1169" math="0" shadow="0">
      <root>
        <mxCell id="0" />
        <mxCell id="1" parent="0" />
        <mxCell id="jQSZECczxi5SDQun59pU-1" value="Подобрать репертуар музыкального коллектива" style="whiteSpace=wrap;html=1;" vertex="1" parent="1">
          <mxGeometry x="294" y="190" width="120" height="60" as="geometry" />
        </mxCell>
        <mxCell id="hH1XuvpqPFpwQh8zI5so-2" style="edgeStyle=orthogonalEdgeStyle;rounded=0;orthogonalLoop=1;jettySize=auto;html=1;entryX=0;entryY=0.5;entryDx=0;entryDy=0;" edge="1" parent="1" source="Z3WlIaXogwLqnp77s9Tm-1" target="gJUFZuXaq6b1m0e1B9C4-1">
          <mxGeometry relative="1" as="geometry" />
        </mxCell>
        <mxCell id="Z3WlIaXogwLqnp77s9Tm-1" value="Проанализировать уровень музыкальной подготовки участников" style="whiteSpace=wrap;html=1;" vertex="1" parent="1">
          <mxGeometry x="110" y="330" width="130" height="70" as="geometry" />
        </mxCell>
        <mxCell id="hH1XuvpqPFpwQh8zI5so-3" style="edgeStyle=orthogonalEdgeStyle;rounded=0;orthogonalLoop=1;jettySize=auto;html=1;entryX=0;entryY=0.5;entryDx=0;entryDy=0;" edge="1" parent="1" source="gJUFZuXaq6b1m0e1B9C4-1" target="hH1XuvpqPFpwQh8zI5so-1">
          <mxGeometry relative="1" as="geometry" />
        </mxCell>
        <mxCell id="gJUFZuXaq6b1m0e1B9C4-1" value="Получить обратную связь желаемого репертуара" style="whiteSpace=wrap;html=1;" vertex="1" parent="1">
          <mxGeometry x="280" y="440" width="120" height="60" as="geometry" />
        </mxCell>
        <mxCell id="hH1XuvpqPFpwQh8zI5so-1" value="Утвердить репертуар коллектива" style="whiteSpace=wrap;html=1;" vertex="1" parent="1">
          <mxGeometry x="440" y="555" width="120" height="60" as="geometry" />
        </mxCell>
      </root>
    </mxGraphModel>
  </diagram>
  <diagram id="i-u6rQLn-zxpnvrbR8ro" name="A-2(3)">
    <mxGraphModel dx="664" dy="769" grid="1" gridSize="10" guides="1" tooltips="1" connect="1" arrows="1" fold="1" page="1" pageScale="1" pageWidth="827" pageHeight="1169" math="0" shadow="0">
      <root>
        <mxCell id="0" />
        <mxCell id="1" parent="0" />
        <mxCell id="7wGRqX7D6eCmprce2_yq-1" value="Планировать и проводить репетиционные занятия" style="whiteSpace=wrap;html=1;" vertex="1" parent="1">
          <mxGeometry x="270" y="160" width="120" height="60" as="geometry" />
        </mxCell>
        <mxCell id="3LdVkR1y8aThUSW6S1w4-5" style="edgeStyle=orthogonalEdgeStyle;rounded=0;orthogonalLoop=1;jettySize=auto;html=1;entryX=0;entryY=0.5;entryDx=0;entryDy=0;" edge="1" parent="1" source="B7YKxDCVAKGRLs5-byN_-1" target="3LdVkR1y8aThUSW6S1w4-1">
          <mxGeometry relative="1" as="geometry" />
        </mxCell>
        <mxCell id="B7YKxDCVAKGRLs5-byN_-1" value="Разработать график занятий для музыкальных секций" style="whiteSpace=wrap;html=1;" vertex="1" parent="1">
          <mxGeometry x="240" y="440" width="120" height="60" as="geometry" />
        </mxCell>
        <mxCell id="k6ND6RRxq5JhbdsLiR1Z-2" style="edgeStyle=orthogonalEdgeStyle;rounded=0;orthogonalLoop=1;jettySize=auto;html=1;entryX=0;entryY=0.5;entryDx=0;entryDy=0;" edge="1" parent="1" source="3LdVkR1y8aThUSW6S1w4-1" target="k6ND6RRxq5JhbdsLiR1Z-1">
          <mxGeometry relative="1" as="geometry" />
        </mxCell>
        <mxCell id="3LdVkR1y8aThUSW6S1w4-1" value="Разработать график занятий для сводных репетиций музыкальных ансамблей" style="whiteSpace=wrap;html=1;" vertex="1" parent="1">
          <mxGeometry x="410" y="540" width="150" height="80" as="geometry" />
        </mxCell>
        <mxCell id="3LdVkR1y8aThUSW6S1w4-4" style="edgeStyle=orthogonalEdgeStyle;rounded=0;orthogonalLoop=1;jettySize=auto;html=1;entryX=0;entryY=0.5;entryDx=0;entryDy=0;" edge="1" parent="1" source="3LdVkR1y8aThUSW6S1w4-3" target="B7YKxDCVAKGRLs5-byN_-1">
          <mxGeometry relative="1" as="geometry" />
        </mxCell>
        <mxCell id="3LdVkR1y8aThUSW6S1w4-3" value="Утвердить репетиционные помещения совместно с УВР" style="whiteSpace=wrap;html=1;" vertex="1" parent="1">
          <mxGeometry x="80" y="320" width="120" height="60" as="geometry" />
        </mxCell>
        <mxCell id="k6ND6RRxq5JhbdsLiR1Z-1" value="Отслеживать прогресс репетиционных занятий" style="whiteSpace=wrap;html=1;" vertex="1" parent="1">
          <mxGeometry x="600" y="670" width="120" height="60" as="geometry" />
        </mxCell>
      </root>
    </mxGraphModel>
  </diagram>
  <diagram id="v8bYDv06QeP0-150ISYn" name="A-2(4)">
    <mxGraphModel dx="664" dy="769" grid="1" gridSize="10" guides="1" tooltips="1" connect="1" arrows="1" fold="1" page="1" pageScale="1" pageWidth="827" pageHeight="1169" math="0" shadow="0">
      <root>
        <mxCell id="0" />
        <mxCell id="1" parent="0" />
        <mxCell id="OIqS-ngYZjrRgSCOC-fb-1" value="Участвовать в творческих мероприятиях" style="whiteSpace=wrap;html=1;" vertex="1" parent="1">
          <mxGeometry x="310" y="200" width="120" height="60" as="geometry" />
        </mxCell>
        <mxCell id="HBz3tLZxGVKqvOSfatwk-4" style="edgeStyle=orthogonalEdgeStyle;rounded=0;orthogonalLoop=1;jettySize=auto;html=1;entryX=0;entryY=0.5;entryDx=0;entryDy=0;" edge="1" parent="1" source="HBz3tLZxGVKqvOSfatwk-1" target="HBz3tLZxGVKqvOSfatwk-2">
          <mxGeometry relative="1" as="geometry" />
        </mxCell>
        <mxCell id="HBz3tLZxGVKqvOSfatwk-1" value="Получить сведения о предстоящих мероприятиях" style="whiteSpace=wrap;html=1;" vertex="1" parent="1">
          <mxGeometry x="110" y="350" width="120" height="60" as="geometry" />
        </mxCell>
        <mxCell id="HBz3tLZxGVKqvOSfatwk-5" style="edgeStyle=orthogonalEdgeStyle;rounded=0;orthogonalLoop=1;jettySize=auto;html=1;entryX=0;entryY=0.5;entryDx=0;entryDy=0;" edge="1" parent="1" source="HBz3tLZxGVKqvOSfatwk-2" target="HBz3tLZxGVKqvOSfatwk-3">
          <mxGeometry relative="1" as="geometry" />
        </mxCell>
        <mxCell id="HBz3tLZxGVKqvOSfatwk-2" value="Подобрать репертуар выступлений музыкальных ансамблей" style="whiteSpace=wrap;html=1;" vertex="1" parent="1">
          <mxGeometry x="274" y="470" width="140" height="70" as="geometry" />
        </mxCell>
        <mxCell id="HBz3tLZxGVKqvOSfatwk-3" value="Подать заявку на участие музыкальных ансамблей" style="whiteSpace=wrap;html=1;" vertex="1" parent="1">
          <mxGeometry x="460" y="600" width="120" height="60" as="geometry" />
        </mxCell>
      </root>
    </mxGraphModel>
  </diagram>
</mxfile>
